# xmcd
# Track frame offsets:
# 150
# 17849
# 31776
# 45671
# 64395
# 76882
# 98763
# 110269
# 129252
# 139830
#
# Disc length: 2055 seconds
# Revision: 0
# Processed by: cddbd v1.5.2PL0 Copyright (c) Steve Scherf et al.
# Submitted via: VisiTrax 2.11.3.279 - For more info visit www.synapsa.com
#
DISCID=7908050a
DTITLE=Cissy Drinkard (aka Cissy Houston) and The Sweet Inspirations - Songs O
DTITLE=f Faith and Inspiration: Original Album *ReMastered
DYEAR=1968
DGENRE=Gospel
TTITLE0=What A Friend*
TTITLE1=I Shall Know Him*
TTITLE2=Swing Low*
TTITLE3=Guide Me*
TTITLE4=Looking On The Bright Side*
TTITLE5=He'll Fight*
TTITLE6=Without A Doubt*
TTITLE7=The 23rd Psalm*
TTITLE8=Down By The River Side*
TTITLE9=Pilgrims Of Sorrow*
EXTD=Originaly released by Atlantic Records. This ReMastered CD by Atlantic
EXTD=/Warner: 1994
EXTT0=
EXTT1=
EXTT2=
EXTT3=
EXTT4=
EXTT5=
EXTT6=
EXTT7=
EXTT8=
EXTT9=
PLAYORDER=
